<svg width="20" height="20" viewBox="0 0 20 20" fill="none" xmlns="http://www.w3.org/2000/svg">
<path d="M12.3697 10L19.513 2.8549C20.1623 2.20534 20.1623 1.13672 19.513 0.487166C18.8636 -0.162389 17.7952 -0.162389 17.1459 0.487166L10.0026 7.63227L2.85939 0.487166C2.21 -0.162389 1.14166 -0.162389 0.492275 0.487166C0.167583 0.811943 0 1.24149 0 1.67103C0 2.10058 0.167583 2.53012 0.492275 2.8549L7.63551 10L0.492275 17.1451C0.167583 17.4699 0 17.8994 0 18.329C0 18.7585 0.167583 19.1881 0.492275 19.5128C1.14166 20.1624 2.21 20.1624 2.85939 19.5128L10.0026 12.3677L17.1459 19.5128C17.7952 20.1624 18.8636 20.1624 19.513 19.5128C20.1623 18.8633 20.1623 17.7947 19.513 17.1451L12.3697 10Z" fill="black"/>
</svg>
