<?xml version="1.0" encoding="UTF-8"?>
<svg width="20px" height="20px" viewBox="0 0 12 12" version="1.1" xmlns="http://www.w3.org/2000/svg" xmlns:xlink="http://www.w3.org/1999/xlink">
    <title>Shape</title>
    <g id="✅-6---Case---Notes" stroke="none" stroke-width="1" fill="none" fill-rule="evenodd">
        <g id="Notes---Long-scroll-behaviour" transform="translate(-1167.000000, -182.000000)" fill="var(--icon-dark-gray)" fill-rule="nonzero">
            <g id="View-form-" transform="translate(133.000000, 32.000000)">
                <g id="System-fields-" transform="translate(788.000000, 0.000000)">
                    <g id="Assignee" transform="translate(24.000000, 114.000000)">
                        <g id="Shape" transform="translate(222.000000, 36.000000)">
                            <path d="M2.77788691,2.13346429 L5.99992044,5.35559514 L9.22211309,2.13346429 C9.40006548,1.9555119 9.68858331,1.9555119 9.86653571,2.13346429 C10.0444881,2.31141669 10.0444881,2.59993452 9.86653571,2.77788691 L6.64424574,5.99992044 L9.86653571,9.22211309 C10.0444881,9.40006548 10.0444881,9.68858331 9.86653571,9.86653571 C9.68858331,10.0444881 9.40006548,10.0444881 9.22211309,9.86653571 L5.99992044,6.64424574 L2.77788691,9.86653571 C2.59993452,10.0444881 2.31141669,10.0444881 2.13346429,9.86653571 C1.9555119,9.68858331 1.9555119,9.40006548 2.13346429,9.22211309 L5.35559514,5.99992044 L2.13346429,2.77788691 C1.9555119,2.59993452 1.9555119,2.31141669 2.13346429,2.13346429 C2.31141669,1.9555119 2.59993452,1.9555119 2.77788691,2.13346429 Z"></path>
                        </g>
                    </g>
                </g>
            </g>
        </g>
    </g>
</svg>